<?xml version="1.0" standalone="no"?>
<!DOCTYPE svg PUBLIC "-//W3C//DTD SVG 20010904//EN"
 "http://www.w3.org/TR/2001/REC-SVG-20010904/DTD/svg10.dtd">
<svg version="1.0" xmlns="http://www.w3.org/2000/svg"
 width="133.000000pt" height="133.000000pt" viewBox="0 0 133.000000 133.000000"
 preserveAspectRatio="xMidYMid meet">
<metadata>
Created by potrace 1.11, written by Peter Selinger 2001-2013
</metadata>
<g transform="translate(0.000000,133.000000) scale(0.100000,-0.100000)"
fill="#000000" stroke="none">
<path d="M550 1323 c-59 -10 -160 -49 -220 -83 -136 -80 -234 -197 -293 -352
-29 -77 -31 -92 -31 -213 -1 -153 19 -233 86 -345 125 -209 340 -330 581 -328
353 4 640 283 652 634 4 123 -12 208 -60 311 -88 191 -271 335 -472 371 -55
10 -200 13 -243 5z"/>
</g>
</svg>
